<mxfile host="Electron" modified="2024-01-13T11:46:03.867Z" agent="Mozilla/5.0 (Windows NT 10.0; Win64; x64) AppleWebKit/537.36 (KHTML, like Gecko) draw.io/22.1.16 Chrome/120.0.6099.109 Electron/28.1.0 Safari/537.36" etag="c11ak4ywdmw5jtK7zErs" version="22.1.16" type="device" pages="5">
  <diagram name="index.js" id="hxZLNedr09EQV7U13n4c">
    <mxGraphModel dx="794" dy="477" grid="1" gridSize="10" guides="1" tooltips="1" connect="1" arrows="1" fold="1" page="1" pageScale="1" pageWidth="850" pageHeight="1100" math="0" shadow="0">
      <root>
        <mxCell id="0" />
        <mxCell id="1" parent="0" />
        <mxCell id="mJ1AcZ7n1f8XF6Vsi7XW-4" value="" style="strokeWidth=1;shadow=0;dashed=0;align=center;html=1;shape=mxgraph.mockup.containers.browserWindow;rSize=0;strokeColor=none;strokeColor2=#008cff;strokeColor3=#c4c4c4;mainText=,;recursiveResize=0;fillColor=#00001F;" parent="1" vertex="1">
          <mxGeometry x="150" y="170" width="550" height="380" as="geometry" />
        </mxCell>
        <mxCell id="mJ1AcZ7n1f8XF6Vsi7XW-5" value="login" style="strokeWidth=1;shadow=0;dashed=0;align=center;html=1;shape=mxgraph.mockup.containers.anchor;fontSize=17;fontColor=#666666;align=left;whiteSpace=wrap;" parent="mJ1AcZ7n1f8XF6Vsi7XW-4" vertex="1">
          <mxGeometry x="60" y="12" width="110" height="26" as="geometry" />
        </mxCell>
        <mxCell id="mJ1AcZ7n1f8XF6Vsi7XW-6" value="https://localhost:3000" style="strokeWidth=1;shadow=0;dashed=0;align=center;html=1;shape=mxgraph.mockup.containers.anchor;rSize=0;fontSize=17;fontColor=#666666;align=left;" parent="mJ1AcZ7n1f8XF6Vsi7XW-4" vertex="1">
          <mxGeometry x="130" y="60" width="250" height="26" as="geometry" />
        </mxCell>
        <mxCell id="mJ1AcZ7n1f8XF6Vsi7XW-7" value="Manager Address" style="fillColor=none;strokeColor=none;html=1;fontSize=11;fontStyle=0;align=left;fontColor=#FFFFFF;fontStyle=1;fontSize=11" parent="mJ1AcZ7n1f8XF6Vsi7XW-4" vertex="1">
          <mxGeometry x="130" y="190" width="290" height="20" as="geometry" />
        </mxCell>
        <mxCell id="mJ1AcZ7n1f8XF6Vsi7XW-8" value="0x00...." style="rounded=1;arcSize=9;align=left;spacingLeft=5;strokeColor=#FFFFFF;html=1;strokeWidth=1;fontSize=12;fillColor=none;fontColor=#FFFFFF;opacity=20;" parent="mJ1AcZ7n1f8XF6Vsi7XW-4" vertex="1">
          <mxGeometry x="130" y="215" width="290" height="40" as="geometry" />
        </mxCell>
        <mxCell id="mJ1AcZ7n1f8XF6Vsi7XW-9" value="Login" style="html=1;shadow=0;dashed=0;shape=mxgraph.bootstrap.rrect;rSize=5;strokeColor=none;strokeWidth=1;fillColor=#FFFFFF;fontColor=#FFFFFF;whiteSpace=wrap;align=center;verticalAlign=middle;spacingLeft=0;fontStyle=0;fontSize=13;spacing=5;opacity=20;" parent="mJ1AcZ7n1f8XF6Vsi7XW-4" vertex="1">
          <mxGeometry x="130" y="272" width="90" height="38" as="geometry" />
        </mxCell>
        <mxCell id="KTFnL79tJXavO5tvNWph-1" value="The Locker Space" style="text;strokeColor=none;fillColor=none;html=1;fontSize=24;fontStyle=1;verticalAlign=middle;align=left;fontColor=#FFAE21;" parent="mJ1AcZ7n1f8XF6Vsi7XW-4" vertex="1">
          <mxGeometry x="130" y="130" width="290" height="40" as="geometry" />
        </mxCell>
      </root>
    </mxGraphModel>
  </diagram>
  <diagram id="tywdjPm-KutOToyoWnzY" name="space">
    <mxGraphModel dx="794" dy="477" grid="1" gridSize="10" guides="1" tooltips="1" connect="1" arrows="1" fold="1" page="1" pageScale="1" pageWidth="850" pageHeight="1100" math="0" shadow="0">
      <root>
        <mxCell id="0" />
        <mxCell id="1" parent="0" />
        <mxCell id="TI6mC_XLl7isRokq6c59-1" value="" style="strokeWidth=1;shadow=0;dashed=0;align=center;html=1;shape=mxgraph.mockup.containers.browserWindow;rSize=0;strokeColor=none;strokeColor2=#008cff;strokeColor3=#c4c4c4;mainText=,;recursiveResize=0;fillColor=#00001F;movable=1;resizable=1;rotatable=1;deletable=1;editable=1;locked=0;connectable=1;" parent="1" vertex="1">
          <mxGeometry x="93" y="30" width="880" height="500" as="geometry" />
        </mxCell>
        <mxCell id="TI6mC_XLl7isRokq6c59-2" value="Tokens" style="strokeWidth=1;shadow=0;dashed=0;align=center;html=1;shape=mxgraph.mockup.containers.anchor;fontSize=17;fontColor=#666666;align=left;whiteSpace=wrap;" parent="TI6mC_XLl7isRokq6c59-1" vertex="1">
          <mxGeometry x="60" y="12" width="110" height="26" as="geometry" />
        </mxCell>
        <mxCell id="TI6mC_XLl7isRokq6c59-3" value="https://localhost:3000/0x5cBEF4Ea9526F1992061234&lt;font style=&quot;font-size: 16px;&quot;&gt;85121ACcE0AA93091/&lt;/font&gt;tokens" style="strokeWidth=1;shadow=0;dashed=0;align=center;html=1;shape=mxgraph.mockup.containers.anchor;rSize=0;fontSize=17;fontColor=#666666;align=left;" parent="TI6mC_XLl7isRokq6c59-1" vertex="1">
          <mxGeometry x="130" y="60" width="680" height="26" as="geometry" />
        </mxCell>
        <mxCell id="TI6mC_XLl7isRokq6c59-14" value="Locker Space" style="image;html=1;image=img/lib/atlassian/Stride_Logo.svg;fontColor=#FFFFFF;imageBackground=none;" parent="TI6mC_XLl7isRokq6c59-1" vertex="1">
          <mxGeometry x="38" y="125" width="48.42" height="40" as="geometry" />
        </mxCell>
        <mxCell id="TI6mC_XLl7isRokq6c59-17" value="+" style="text;html=1;strokeColor=none;fillColor=#FFFFFF;align=center;verticalAlign=middle;whiteSpace=wrap;rounded=1;gradientColor=none;opacity=20;arcSize=28;glass=0;" parent="TI6mC_XLl7isRokq6c59-1" vertex="1">
          <mxGeometry x="822" y="140" width="36" height="40.63" as="geometry" />
        </mxCell>
        <mxCell id="TI6mC_XLl7isRokq6c59-16" value="Locked Tokens" style="text;html=1;strokeColor=none;fillColor=#FFFFFF;align=center;verticalAlign=middle;whiteSpace=wrap;rounded=1;gradientColor=none;opacity=20;arcSize=50;" parent="TI6mC_XLl7isRokq6c59-1" vertex="1">
          <mxGeometry x="706" y="140" width="110" height="40.63" as="geometry" />
        </mxCell>
        <mxCell id="TI6mC_XLl7isRokq6c59-20" value="" style="html=1;shadow=0;dashed=0;shape=mxgraph.bootstrap.rrect;rSize=5;strokeColor=default;html=1;whiteSpace=wrap;fillColor=none;fontColor=#FFFFFF;verticalAlign=middle;align=left;spacing=20;spacingBottom=0;fontSize=14;opacity=20;" parent="TI6mC_XLl7isRokq6c59-1" vertex="1">
          <mxGeometry x="23" y="220" width="270" height="170" as="geometry" />
        </mxCell>
        <mxCell id="TI6mC_XLl7isRokq6c59-21" value="Escrow" style="html=1;shadow=0;dashed=0;shape=mxgraph.bootstrap.topButton;rSize=5;perimeter=none;whiteSpace=wrap;fillColor=none;strokeColor=none;fontColor=#FFFFFF;resizeWidth=1;fontSize=20;align=left;spacing=20;fontStyle=1" parent="TI6mC_XLl7isRokq6c59-20" vertex="1">
          <mxGeometry width="270" height="30" relative="1" as="geometry">
            <mxPoint y="8" as="offset" />
          </mxGeometry>
        </mxCell>
        <mxCell id="TI6mC_XLl7isRokq6c59-22" value="" style="ellipse;whiteSpace=wrap;html=1;aspect=fixed;fillColor=#a20025;fontColor=#ffffff;strokeColor=#6F0000;" parent="TI6mC_XLl7isRokq6c59-20" vertex="1">
          <mxGeometry x="225" y="11.61111111111111" width="21.72222222222222" height="21.72222222222222" as="geometry" />
        </mxCell>
        <mxCell id="TI6mC_XLl7isRokq6c59-23" value="View Details" style="fillColor=none;strokeColor=none;html=1;fontColor=#FFAE21;align=left;verticalAlign=middle;fontStyle=0;fontSize=12" parent="TI6mC_XLl7isRokq6c59-20" vertex="1">
          <mxGeometry x="20" y="120.38888888888889" width="210" height="37.77777777777778" as="geometry" />
        </mxCell>
        <mxCell id="TI6mC_XLl7isRokq6c59-24" value="2000 USDT" style="html=1;shadow=0;dashed=0;shape=mxgraph.bootstrap.topButton;rSize=5;perimeter=none;whiteSpace=wrap;fillColor=none;strokeColor=none;fontColor=#FFAE21;resizeWidth=1;fontSize=14;align=left;spacing=20;" parent="TI6mC_XLl7isRokq6c59-20" vertex="1">
          <mxGeometry y="42" width="270" height="28.333333333333332" as="geometry" />
        </mxCell>
        <mxCell id="TI6mC_XLl7isRokq6c59-25" value="&lt;br&gt;0x5cBEF4Ea9526F1992061234&lt;br&gt;85&lt;span style=&quot;font-size: 16px;&quot;&gt;121ACcE0AA93091&lt;/span&gt;" style="html=1;shadow=0;dashed=0;shape=mxgraph.bootstrap.topButton;rSize=5;perimeter=none;whiteSpace=wrap;fillColor=none;strokeColor=none;fontColor=#FFFFFF;resizeWidth=1;fontSize=16;align=left;spacing=20;verticalAlign=middle;" parent="TI6mC_XLl7isRokq6c59-20" vertex="1">
          <mxGeometry y="70.33333333333333" width="270" height="31.166666666666664" as="geometry" />
        </mxCell>
        <mxCell id="TI6mC_XLl7isRokq6c59-26" value="" style="html=1;shadow=0;dashed=0;shape=mxgraph.bootstrap.rrect;rSize=5;strokeColor=default;html=1;whiteSpace=wrap;fillColor=none;fontColor=#FFFFFF;verticalAlign=middle;align=left;spacing=20;spacingBottom=0;fontSize=14;opacity=20;" parent="1" vertex="1">
          <mxGeometry x="401" y="251" width="270" height="170" as="geometry" />
        </mxCell>
        <mxCell id="TI6mC_XLl7isRokq6c59-27" value="Escrow" style="html=1;shadow=0;dashed=0;shape=mxgraph.bootstrap.topButton;rSize=5;perimeter=none;whiteSpace=wrap;fillColor=none;strokeColor=none;fontColor=#FFFFFF;resizeWidth=1;fontSize=20;align=left;spacing=20;fontStyle=1" parent="TI6mC_XLl7isRokq6c59-26" vertex="1">
          <mxGeometry width="270" height="30" relative="1" as="geometry">
            <mxPoint y="8" as="offset" />
          </mxGeometry>
        </mxCell>
        <mxCell id="TI6mC_XLl7isRokq6c59-28" value="" style="ellipse;whiteSpace=wrap;html=1;aspect=fixed;fillColor=#a20025;fontColor=#ffffff;strokeColor=#6F0000;" parent="TI6mC_XLl7isRokq6c59-26" vertex="1">
          <mxGeometry x="225" y="11.61111111111111" width="21.72222222222222" height="21.72222222222222" as="geometry" />
        </mxCell>
        <mxCell id="TI6mC_XLl7isRokq6c59-29" value="View Details" style="fillColor=none;strokeColor=none;html=1;fontColor=#FFAE21;align=left;verticalAlign=middle;fontStyle=0;fontSize=12" parent="TI6mC_XLl7isRokq6c59-26" vertex="1">
          <mxGeometry x="20" y="120.38888888888889" width="210" height="37.77777777777778" as="geometry" />
        </mxCell>
        <mxCell id="TI6mC_XLl7isRokq6c59-30" value="2000 USDT" style="html=1;shadow=0;dashed=0;shape=mxgraph.bootstrap.topButton;rSize=5;perimeter=none;whiteSpace=wrap;fillColor=none;strokeColor=none;fontColor=#FFAE21;resizeWidth=1;fontSize=14;align=left;spacing=20;" parent="TI6mC_XLl7isRokq6c59-26" vertex="1">
          <mxGeometry y="42" width="270" height="28.333333333333332" as="geometry" />
        </mxCell>
        <mxCell id="TI6mC_XLl7isRokq6c59-31" value="&lt;br&gt;0x5cBEF4Ea9526F1992061234&lt;br&gt;85&lt;span style=&quot;font-size: 16px;&quot;&gt;121ACcE0AA93091&lt;/span&gt;" style="html=1;shadow=0;dashed=0;shape=mxgraph.bootstrap.topButton;rSize=5;perimeter=none;whiteSpace=wrap;fillColor=none;strokeColor=none;fontColor=#FFFFFF;resizeWidth=1;fontSize=16;align=left;spacing=20;verticalAlign=middle;" parent="TI6mC_XLl7isRokq6c59-26" vertex="1">
          <mxGeometry y="70.33333333333333" width="270" height="31.166666666666664" as="geometry" />
        </mxCell>
        <mxCell id="TI6mC_XLl7isRokq6c59-32" value="" style="html=1;shadow=0;dashed=0;shape=mxgraph.bootstrap.rrect;rSize=5;strokeColor=default;html=1;whiteSpace=wrap;fillColor=none;fontColor=#FFFFFF;verticalAlign=middle;align=left;spacing=20;spacingBottom=0;fontSize=14;opacity=20;" parent="1" vertex="1">
          <mxGeometry x="682" y="251" width="270" height="170" as="geometry" />
        </mxCell>
        <mxCell id="TI6mC_XLl7isRokq6c59-33" value="Escrow" style="html=1;shadow=0;dashed=0;shape=mxgraph.bootstrap.topButton;rSize=5;perimeter=none;whiteSpace=wrap;fillColor=none;strokeColor=none;fontColor=#FFFFFF;resizeWidth=1;fontSize=20;align=left;spacing=20;fontStyle=1" parent="TI6mC_XLl7isRokq6c59-32" vertex="1">
          <mxGeometry width="270" height="30" relative="1" as="geometry">
            <mxPoint y="8" as="offset" />
          </mxGeometry>
        </mxCell>
        <mxCell id="TI6mC_XLl7isRokq6c59-34" value="" style="ellipse;whiteSpace=wrap;html=1;aspect=fixed;fillColor=#a20025;fontColor=#ffffff;strokeColor=#6F0000;" parent="TI6mC_XLl7isRokq6c59-32" vertex="1">
          <mxGeometry x="225" y="11.61111111111111" width="21.72222222222222" height="21.72222222222222" as="geometry" />
        </mxCell>
        <mxCell id="TI6mC_XLl7isRokq6c59-35" value="View Details" style="fillColor=none;strokeColor=none;html=1;fontColor=#FFAE21;align=left;verticalAlign=middle;fontStyle=0;fontSize=12" parent="TI6mC_XLl7isRokq6c59-32" vertex="1">
          <mxGeometry x="20" y="120.38888888888889" width="210" height="37.77777777777778" as="geometry" />
        </mxCell>
        <mxCell id="TI6mC_XLl7isRokq6c59-36" value="2000 USDT" style="html=1;shadow=0;dashed=0;shape=mxgraph.bootstrap.topButton;rSize=5;perimeter=none;whiteSpace=wrap;fillColor=none;strokeColor=none;fontColor=#FFAE21;resizeWidth=1;fontSize=14;align=left;spacing=20;" parent="TI6mC_XLl7isRokq6c59-32" vertex="1">
          <mxGeometry y="42" width="270" height="28.333333333333332" as="geometry" />
        </mxCell>
        <mxCell id="TI6mC_XLl7isRokq6c59-37" value="&lt;br&gt;0x5cBEF4Ea9526F1992061234&lt;br&gt;85&lt;span style=&quot;font-size: 16px;&quot;&gt;121ACcE0AA93091&lt;/span&gt;" style="html=1;shadow=0;dashed=0;shape=mxgraph.bootstrap.topButton;rSize=5;perimeter=none;whiteSpace=wrap;fillColor=none;strokeColor=none;fontColor=#FFFFFF;resizeWidth=1;fontSize=16;align=left;spacing=20;verticalAlign=middle;" parent="TI6mC_XLl7isRokq6c59-32" vertex="1">
          <mxGeometry y="70.33333333333333" width="270" height="31.166666666666664" as="geometry" />
        </mxCell>
      </root>
    </mxGraphModel>
  </diagram>
  <diagram id="qeQEIblAW2mEnK2UOYfr" name="TokenDetails">
    <mxGraphModel dx="1884" dy="477" grid="1" gridSize="10" guides="1" tooltips="1" connect="1" arrows="1" fold="1" page="1" pageScale="1" pageWidth="850" pageHeight="1100" math="0" shadow="0">
      <root>
        <mxCell id="0" />
        <mxCell id="1" parent="0" />
        <mxCell id="GUpgTRwl1or-V8zJ85IE-1" value="" style="strokeWidth=1;shadow=0;dashed=0;align=center;html=1;shape=mxgraph.mockup.containers.browserWindow;rSize=0;strokeColor=none;strokeColor2=#008cff;strokeColor3=#c4c4c4;mainText=,;recursiveResize=0;fillColor=#00001F;movable=1;resizable=1;rotatable=1;deletable=1;editable=1;locked=0;connectable=1;" parent="1" vertex="1">
          <mxGeometry x="-20" y="20" width="880" height="500" as="geometry" />
        </mxCell>
        <mxCell id="GUpgTRwl1or-V8zJ85IE-2" value="Token Details" style="strokeWidth=1;shadow=0;dashed=0;align=center;html=1;shape=mxgraph.mockup.containers.anchor;fontSize=17;fontColor=#666666;align=left;whiteSpace=wrap;" parent="GUpgTRwl1or-V8zJ85IE-1" vertex="1">
          <mxGeometry x="60" y="12" width="110" height="26" as="geometry" />
        </mxCell>
        <mxCell id="GUpgTRwl1or-V8zJ85IE-3" value="https://localhost:3000/0x5cBEF4Ea9526F1992061234&lt;font style=&quot;font-size: 16px;&quot;&gt;85121ACcE0AA93091&lt;/font&gt;/tokens/0x...." style="strokeWidth=1;shadow=0;dashed=0;align=center;html=1;shape=mxgraph.mockup.containers.anchor;rSize=0;fontSize=17;fontColor=#666666;align=left;" parent="GUpgTRwl1or-V8zJ85IE-1" vertex="1">
          <mxGeometry x="130" y="60" width="720" height="26" as="geometry" />
        </mxCell>
        <mxCell id="GUpgTRwl1or-V8zJ85IE-4" value="Locker Space" style="image;html=1;image=img/lib/atlassian/Stride_Logo.svg;fontColor=#FFFFFF;" parent="GUpgTRwl1or-V8zJ85IE-1" vertex="1">
          <mxGeometry x="38" y="125" width="48.42" height="40" as="geometry" />
        </mxCell>
        <mxCell id="GUpgTRwl1or-V8zJ85IE-5" value="+" style="text;html=1;strokeColor=none;fillColor=#FFFFFF;align=center;verticalAlign=middle;whiteSpace=wrap;rounded=1;gradientColor=none;opacity=20;arcSize=28;glass=0;" parent="GUpgTRwl1or-V8zJ85IE-1" vertex="1">
          <mxGeometry x="822" y="140" width="36" height="40.63" as="geometry" />
        </mxCell>
        <mxCell id="GUpgTRwl1or-V8zJ85IE-6" value="Locked Tokens" style="text;html=1;strokeColor=none;fillColor=#FFFFFF;align=center;verticalAlign=middle;whiteSpace=wrap;rounded=1;gradientColor=none;opacity=20;arcSize=50;" parent="GUpgTRwl1or-V8zJ85IE-1" vertex="1">
          <mxGeometry x="706" y="140" width="110" height="40.63" as="geometry" />
        </mxCell>
        <mxCell id="7uWGHlObzRZmvIMEpOYB-1" value="Escrow" style="text;strokeColor=none;fillColor=none;html=1;fontSize=24;fontStyle=1;verticalAlign=middle;align=left;" parent="GUpgTRwl1or-V8zJ85IE-1" vertex="1">
          <mxGeometry x="30" y="210" width="100" height="40" as="geometry" />
        </mxCell>
        <mxCell id="7uWGHlObzRZmvIMEpOYB-3" value="&lt;br style=&quot;font-size: 16px;&quot;&gt;0x5cBEF4Ea9526F1992061234&lt;font style=&quot;font-size: 12px;&quot;&gt;&lt;span style=&quot;&quot;&gt;85&lt;/span&gt;&lt;span style=&quot;&quot;&gt;121ACcE0AA93091&lt;/span&gt;&lt;/font&gt;" style="text;html=1;strokeColor=none;fillColor=none;align=left;verticalAlign=bottom;whiteSpace=wrap;rounded=0;fontColor=#FFAE21;fontStyle=4" parent="GUpgTRwl1or-V8zJ85IE-1" vertex="1">
          <mxGeometry x="30" y="252" width="300" height="19" as="geometry" />
        </mxCell>
        <mxCell id="OTm-kFBAGf20pEPoKUV9-1" value="" style="ellipse;whiteSpace=wrap;html=1;aspect=fixed;fillColor=#a20025;fontColor=#ffffff;strokeColor=#6F0000;" parent="GUpgTRwl1or-V8zJ85IE-1" vertex="1">
          <mxGeometry x="145.14" y="219.14" width="21.72222222222222" height="21.72222222222222" as="geometry" />
        </mxCell>
        <mxCell id="OTm-kFBAGf20pEPoKUV9-4" value="" style="line;strokeWidth=1;fillColor=none;align=left;verticalAlign=middle;spacingTop=-1;spacingLeft=3;spacingRight=3;rotatable=0;labelPosition=right;points=[];portConstraint=eastwest;strokeColor=default;labelBackgroundColor=#FFFFFF;fillStyle=solid;opacity=10;" parent="GUpgTRwl1or-V8zJ85IE-1" vertex="1">
          <mxGeometry x="13" y="279" width="850" height="8" as="geometry" />
        </mxCell>
        <mxCell id="lM9OCe2U8Z9D9xqIR0fV-3" value="Lockdown Date" style="text;html=1;strokeColor=none;fillColor=none;align=left;verticalAlign=middle;whiteSpace=wrap;rounded=0;" parent="GUpgTRwl1or-V8zJ85IE-1" vertex="1">
          <mxGeometry x="740.21" y="310" width="98.79" height="19" as="geometry" />
        </mxCell>
        <mxCell id="lM9OCe2U8Z9D9xqIR0fV-4" value="&lt;font color=&quot;#ffffff&quot;&gt;23rd&lt;/font&gt; &lt;font color=&quot;#ffffff&quot;&gt;Oct&lt;/font&gt; 2023" style="text;html=1;strokeColor=none;fillColor=none;align=left;verticalAlign=bottom;whiteSpace=wrap;rounded=0;fontColor=#FFAE21;fontStyle=1;fontSize=16;" parent="GUpgTRwl1or-V8zJ85IE-1" vertex="1">
          <mxGeometry x="740" y="330" width="120" height="22" as="geometry" />
        </mxCell>
        <mxCell id="MB8tP_47_HcvZSrb_5FQ-1" value="Release Fund" style="text;html=1;strokeColor=none;fillColor=#FFFFFF;align=center;verticalAlign=middle;whiteSpace=wrap;rounded=1;gradientColor=none;opacity=20;arcSize=12;" parent="GUpgTRwl1or-V8zJ85IE-1" vertex="1">
          <mxGeometry x="30" y="440" width="110" height="40.63" as="geometry" />
        </mxCell>
        <mxCell id="OTm-kFBAGf20pEPoKUV9-2" value="Beneficiary" style="text;html=1;strokeColor=none;fillColor=none;align=left;verticalAlign=middle;whiteSpace=wrap;rounded=0;" parent="1" vertex="1">
          <mxGeometry x="10" y="324" width="57.79" height="19" as="geometry" />
        </mxCell>
        <mxCell id="OTm-kFBAGf20pEPoKUV9-3" value="&lt;br style=&quot;font-size: 16px;&quot;&gt;0x5cBEF4Ea9526F1992061234&lt;font style=&quot;font-size: 16px;&quot;&gt;&lt;span style=&quot;font-size: 16px;&quot;&gt;85&lt;/span&gt;&lt;span style=&quot;font-size: 16px;&quot;&gt;121ACcE0AA93091&lt;/span&gt;&lt;/font&gt;" style="text;html=1;strokeColor=none;fillColor=none;align=left;verticalAlign=bottom;whiteSpace=wrap;rounded=0;fontColor=#FFAE21;fontStyle=4;fontSize=16;" parent="1" vertex="1">
          <mxGeometry x="9.79" y="343" width="390.21" height="27" as="geometry" />
        </mxCell>
        <mxCell id="OTm-kFBAGf20pEPoKUV9-7" value="2,000 &lt;font color=&quot;#ffffff&quot;&gt;USDT&lt;/font&gt;" style="text;html=1;strokeColor=none;fillColor=none;align=center;verticalAlign=bottom;whiteSpace=wrap;rounded=0;fontColor=#FFAE21;fontStyle=1;spacing=2;fontSize=20;" parent="1" vertex="1">
          <mxGeometry x="712.79" y="252" width="129.21" height="38" as="geometry" />
        </mxCell>
        <mxCell id="lM9OCe2U8Z9D9xqIR0fV-1" value="Lockdown Period" style="text;html=1;strokeColor=none;fillColor=none;align=left;verticalAlign=middle;whiteSpace=wrap;rounded=0;" parent="1" vertex="1">
          <mxGeometry x="11.21" y="389" width="98.79" height="19" as="geometry" />
        </mxCell>
        <mxCell id="lM9OCe2U8Z9D9xqIR0fV-2" value="60 &lt;font color=&quot;#ffffff&quot;&gt;Days&lt;/font&gt;" style="text;html=1;strokeColor=none;fillColor=none;align=left;verticalAlign=bottom;whiteSpace=wrap;rounded=0;fontColor=#FFAE21;fontStyle=1;fontSize=16;" parent="1" vertex="1">
          <mxGeometry x="11" y="409" width="79" height="22" as="geometry" />
        </mxCell>
        <mxCell id="lM9OCe2U8Z9D9xqIR0fV-5" value="Remaining Period" style="text;html=1;strokeColor=none;fillColor=none;align=left;verticalAlign=middle;whiteSpace=wrap;rounded=0;" parent="1" vertex="1">
          <mxGeometry x="719.21" y="389" width="98.79" height="19" as="geometry" />
        </mxCell>
        <mxCell id="lM9OCe2U8Z9D9xqIR0fV-6" value="25&amp;nbsp;&lt;font color=&quot;#ffffff&quot;&gt;Days&lt;/font&gt;" style="text;html=1;strokeColor=none;fillColor=none;align=left;verticalAlign=bottom;whiteSpace=wrap;rounded=0;fontColor=#FFAE21;fontStyle=1;fontSize=16;" parent="1" vertex="1">
          <mxGeometry x="719" y="409" width="79" height="22" as="geometry" />
        </mxCell>
      </root>
    </mxGraphModel>
  </diagram>
  <diagram id="bIJG8pYpn260pAIr-25P" name="Lock Token">
    <mxGraphModel dx="1644" dy="477" grid="1" gridSize="10" guides="1" tooltips="1" connect="1" arrows="1" fold="1" page="1" pageScale="1" pageWidth="850" pageHeight="1100" math="0" shadow="0">
      <root>
        <mxCell id="0" />
        <mxCell id="1" parent="0" />
        <mxCell id="T5kQ60zvlCqLJwJ0YN6l-1" value="" style="strokeWidth=1;shadow=0;dashed=0;align=center;html=1;shape=mxgraph.mockup.containers.browserWindow;rSize=0;strokeColor=none;strokeColor2=#008cff;strokeColor3=#c4c4c4;mainText=,;recursiveResize=0;fillColor=#00001F;movable=1;resizable=1;rotatable=1;deletable=1;editable=1;locked=0;connectable=1;" parent="1" vertex="1">
          <mxGeometry x="-20" y="20" width="880" height="575" as="geometry" />
        </mxCell>
        <mxCell id="T5kQ60zvlCqLJwJ0YN6l-2" value="Token Details" style="strokeWidth=1;shadow=0;dashed=0;align=center;html=1;shape=mxgraph.mockup.containers.anchor;fontSize=17;fontColor=#666666;align=left;whiteSpace=wrap;" parent="T5kQ60zvlCqLJwJ0YN6l-1" vertex="1">
          <mxGeometry x="60" y="12" width="110" height="26" as="geometry" />
        </mxCell>
        <mxCell id="T5kQ60zvlCqLJwJ0YN6l-3" value="https://localhost:3000/0x5cBEF4Ea9526F1992061234&lt;font style=&quot;font-size: 16px;&quot;&gt;85121ACcE0AA93091&lt;/font&gt;/tokens/0x...." style="strokeWidth=1;shadow=0;dashed=0;align=center;html=1;shape=mxgraph.mockup.containers.anchor;rSize=0;fontSize=17;fontColor=#666666;align=left;" parent="T5kQ60zvlCqLJwJ0YN6l-1" vertex="1">
          <mxGeometry x="130" y="60" width="720" height="26" as="geometry" />
        </mxCell>
        <mxCell id="T5kQ60zvlCqLJwJ0YN6l-4" value="Locker Space" style="image;html=1;image=img/lib/atlassian/Stride_Logo.svg;fontColor=#FFFFFF;" parent="T5kQ60zvlCqLJwJ0YN6l-1" vertex="1">
          <mxGeometry x="38" y="125" width="48.42" height="40" as="geometry" />
        </mxCell>
        <mxCell id="T5kQ60zvlCqLJwJ0YN6l-5" value="+" style="text;html=1;strokeColor=none;fillColor=#FFFFFF;align=center;verticalAlign=middle;whiteSpace=wrap;rounded=1;gradientColor=none;opacity=20;arcSize=28;glass=0;" parent="T5kQ60zvlCqLJwJ0YN6l-1" vertex="1">
          <mxGeometry x="822" y="140" width="36" height="40.63" as="geometry" />
        </mxCell>
        <mxCell id="T5kQ60zvlCqLJwJ0YN6l-6" value="Locked Tokens" style="text;html=1;strokeColor=none;fillColor=#FFFFFF;align=center;verticalAlign=middle;whiteSpace=wrap;rounded=1;gradientColor=none;opacity=20;arcSize=50;" parent="T5kQ60zvlCqLJwJ0YN6l-1" vertex="1">
          <mxGeometry x="706" y="140" width="110" height="40.63" as="geometry" />
        </mxCell>
        <mxCell id="T5kQ60zvlCqLJwJ0YN6l-14" value="Token Address" style="fillColor=none;strokeColor=none;html=1;fontSize=11;fontStyle=0;align=left;fontColor=#FFFFFF;fontStyle=1;fontSize=11" parent="T5kQ60zvlCqLJwJ0YN6l-1" vertex="1">
          <mxGeometry x="458" y="281" width="107" height="20" as="geometry" />
        </mxCell>
        <mxCell id="T5kQ60zvlCqLJwJ0YN6l-15" value="0x00...." style="rounded=1;arcSize=9;align=left;spacingLeft=5;strokeColor=#FFFFFF;html=1;strokeWidth=1;fontSize=12;fillColor=none;fontColor=#FFFFFF;opacity=20;textOpacity=20;" parent="T5kQ60zvlCqLJwJ0YN6l-1" vertex="1">
          <mxGeometry x="458" y="303" width="384" height="40" as="geometry" />
        </mxCell>
        <mxCell id="T5kQ60zvlCqLJwJ0YN6l-17" value="" style="rounded=1;arcSize=9;fillColor=none;strokeColor=#FFFFFF;html=1;strokeWidth=1;spacingLeft=30;fontColor=#000000;align=left;opacity=20;" parent="T5kQ60zvlCqLJwJ0YN6l-1" vertex="1">
          <mxGeometry x="45" y="302" width="384" height="42" as="geometry" />
        </mxCell>
        <mxCell id="T5kQ60zvlCqLJwJ0YN6l-18" value="" style="shape=step;whiteSpace=wrap;html=1;rounded=0;strokeColor=none;strokeWidth=2;fillColor=#FFAE21;gradientColor=none;fontFamily=Verdana;fontSize=14;fontColor=#000000;align=left;direction=south;size=0.65;" parent="T5kQ60zvlCqLJwJ0YN6l-17" vertex="1">
          <mxGeometry x="1" y="0.5" width="10" height="7" relative="1" as="geometry">
            <mxPoint x="-24" y="-3" as="offset" />
          </mxGeometry>
        </mxCell>
        <mxCell id="T5kQ60zvlCqLJwJ0YN6l-23" value="Select Token" style="text;html=1;strokeColor=none;fillColor=none;align=left;verticalAlign=middle;whiteSpace=wrap;rounded=0;textOpacity=20;" parent="T5kQ60zvlCqLJwJ0YN6l-17" vertex="1">
          <mxGeometry x="7.007676767676768" y="6" width="122.28525252525253" height="30" as="geometry" />
        </mxCell>
        <mxCell id="T5kQ60zvlCqLJwJ0YN6l-24" value="Token" style="fillColor=none;strokeColor=none;html=1;fontSize=11;fontStyle=0;align=left;fontColor=#FFFFFF;fontStyle=1;fontSize=11" parent="1" vertex="1">
          <mxGeometry x="25" y="300" width="107" height="20" as="geometry" />
        </mxCell>
        <mxCell id="T5kQ60zvlCqLJwJ0YN6l-25" value="Title" style="fillColor=none;strokeColor=none;html=1;fontSize=11;fontStyle=0;align=left;fontColor=#FFFFFF;fontStyle=1;fontSize=11" parent="1" vertex="1">
          <mxGeometry x="25" y="373" width="107" height="20" as="geometry" />
        </mxCell>
        <mxCell id="T5kQ60zvlCqLJwJ0YN6l-26" value="E.g Salary or Escrow etc..." style="rounded=1;arcSize=9;align=left;spacingLeft=5;strokeColor=#FFFFFF;html=1;strokeWidth=1;fontSize=12;fillColor=none;fontColor=#FFFFFF;opacity=20;textOpacity=20;" parent="1" vertex="1">
          <mxGeometry x="25" y="395" width="384" height="40" as="geometry" />
        </mxCell>
        <mxCell id="T5kQ60zvlCqLJwJ0YN6l-29" value="Lock a Token" style="text;strokeColor=none;fillColor=none;html=1;fontSize=24;fontStyle=1;verticalAlign=middle;align=left;" parent="1" vertex="1">
          <mxGeometry x="25" y="230" width="795" height="40" as="geometry" />
        </mxCell>
        <mxCell id="T5kQ60zvlCqLJwJ0YN6l-30" value="Beneficiary" style="fillColor=none;strokeColor=none;html=1;fontSize=11;fontStyle=0;align=left;fontColor=#FFFFFF;fontStyle=1;fontSize=11" parent="1" vertex="1">
          <mxGeometry x="439" y="373" width="107" height="20" as="geometry" />
        </mxCell>
        <mxCell id="T5kQ60zvlCqLJwJ0YN6l-31" value="E.g Salary or Escrow etc..." style="rounded=1;arcSize=9;align=left;spacingLeft=5;strokeColor=#FFFFFF;html=1;strokeWidth=1;fontSize=12;fillColor=none;fontColor=#FFFFFF;opacity=20;textOpacity=20;" parent="1" vertex="1">
          <mxGeometry x="439" y="395" width="384" height="40" as="geometry" />
        </mxCell>
        <mxCell id="Tm1CTEpuATz4Bj6gxFyl-1" value="Amount" style="fillColor=none;strokeColor=none;html=1;fontSize=11;fontStyle=0;align=left;fontColor=#FFFFFF;fontStyle=1;fontSize=11" parent="1" vertex="1">
          <mxGeometry x="25" y="450" width="108" height="20" as="geometry" />
        </mxCell>
        <mxCell id="Tm1CTEpuATz4Bj6gxFyl-2" value="E.g 2000 or 500 etc" style="rounded=1;arcSize=9;align=left;spacingLeft=5;strokeColor=#FFFFFF;html=1;strokeWidth=1;fontSize=12;fillColor=none;fontColor=#FFFFFF;opacity=20;textOpacity=20;" parent="1" vertex="1">
          <mxGeometry x="25" y="472" width="385" height="40" as="geometry" />
        </mxCell>
        <mxCell id="Tm1CTEpuATz4Bj6gxFyl-3" value="Lockdown Period (Days)" style="fillColor=none;strokeColor=none;html=1;fontSize=11;fontStyle=0;align=left;fontColor=#FFFFFF;fontStyle=1;fontSize=11" parent="1" vertex="1">
          <mxGeometry x="440" y="450" width="107" height="20" as="geometry" />
        </mxCell>
        <mxCell id="Tm1CTEpuATz4Bj6gxFyl-4" value="E.g 1, 7, 30, 60..." style="rounded=1;arcSize=9;align=left;spacingLeft=5;strokeColor=#FFFFFF;html=1;strokeWidth=1;fontSize=12;fillColor=none;fontColor=#FFFFFF;opacity=20;textOpacity=20;" parent="1" vertex="1">
          <mxGeometry x="440" y="472" width="384" height="40" as="geometry" />
        </mxCell>
        <mxCell id="PfeDDVkX_D8traGbSDpB-1" value="Lock Fund" style="text;html=1;strokeColor=none;fillColor=#FFFFFF;align=center;verticalAlign=middle;whiteSpace=wrap;rounded=1;gradientColor=none;opacity=20;arcSize=12;" parent="1" vertex="1">
          <mxGeometry x="26" y="525" width="110" height="40.63" as="geometry" />
        </mxCell>
      </root>
    </mxGraphModel>
  </diagram>
  <diagram id="Wsv-zohpCkPiv8jiCmYN" name="Routes">
    <mxGraphModel dx="1964" dy="656" grid="1" gridSize="10" guides="1" tooltips="1" connect="1" arrows="1" fold="1" page="1" pageScale="1" pageWidth="850" pageHeight="1100" math="0" shadow="0">
      <root>
        <mxCell id="0" />
        <mxCell id="1" parent="0" />
        <mxCell id="DnTANv_RaUk5CGLboCPG-28" value="Routes" style="shape=table;startSize=50;container=1;collapsible=0;childLayout=tableLayout;strokeColor=default;fontSize=20;" parent="1" vertex="1">
          <mxGeometry x="-210" y="60" width="900" height="276" as="geometry" />
        </mxCell>
        <mxCell id="DnTANv_RaUk5CGLboCPG-29" value="" style="shape=tableRow;horizontal=0;startSize=0;swimlaneHead=0;swimlaneBody=0;strokeColor=inherit;top=0;left=0;bottom=0;right=0;collapsible=0;dropTarget=0;fillColor=none;points=[[0,0.5],[1,0.5]];portConstraint=eastwest;fontSize=16;" parent="DnTANv_RaUk5CGLboCPG-28" vertex="1">
          <mxGeometry y="50" width="900" height="56" as="geometry" />
        </mxCell>
        <mxCell id="DnTANv_RaUk5CGLboCPG-30" value="/" style="shape=partialRectangle;html=1;whiteSpace=wrap;connectable=0;strokeColor=inherit;overflow=hidden;fillColor=none;top=0;left=0;bottom=0;right=0;pointerEvents=1;fontSize=18;" parent="DnTANv_RaUk5CGLboCPG-29" vertex="1">
          <mxGeometry width="335" height="56" as="geometry">
            <mxRectangle width="335" height="56" as="alternateBounds" />
          </mxGeometry>
        </mxCell>
        <mxCell id="DnTANv_RaUk5CGLboCPG-31" value="index.js" style="shape=partialRectangle;html=1;whiteSpace=wrap;connectable=0;strokeColor=inherit;overflow=hidden;fillColor=none;top=0;left=0;bottom=0;right=0;pointerEvents=1;fontSize=16;" parent="DnTANv_RaUk5CGLboCPG-29" vertex="1">
          <mxGeometry x="335" width="235" height="56" as="geometry">
            <mxRectangle width="235" height="56" as="alternateBounds" />
          </mxGeometry>
        </mxCell>
        <mxCell id="DnTANv_RaUk5CGLboCPG-32" value="Login Page" style="shape=partialRectangle;html=1;whiteSpace=wrap;connectable=0;strokeColor=inherit;overflow=hidden;fillColor=none;top=0;left=0;bottom=0;right=0;pointerEvents=1;fontSize=16;" parent="DnTANv_RaUk5CGLboCPG-29" vertex="1">
          <mxGeometry x="570" width="330" height="56" as="geometry">
            <mxRectangle width="330" height="56" as="alternateBounds" />
          </mxGeometry>
        </mxCell>
        <mxCell id="DnTANv_RaUk5CGLboCPG-33" value="" style="shape=tableRow;horizontal=0;startSize=0;swimlaneHead=0;swimlaneBody=0;strokeColor=inherit;top=0;left=0;bottom=0;right=0;collapsible=0;dropTarget=0;fillColor=none;points=[[0,0.5],[1,0.5]];portConstraint=eastwest;fontSize=16;" parent="DnTANv_RaUk5CGLboCPG-28" vertex="1">
          <mxGeometry y="106" width="900" height="58" as="geometry" />
        </mxCell>
        <mxCell id="DnTANv_RaUk5CGLboCPG-34" value="/[manager]/tokens" style="shape=partialRectangle;html=1;whiteSpace=wrap;connectable=0;strokeColor=inherit;overflow=hidden;fillColor=none;top=0;left=0;bottom=0;right=0;pointerEvents=1;fontSize=18;" parent="DnTANv_RaUk5CGLboCPG-33" vertex="1">
          <mxGeometry width="335" height="58" as="geometry">
            <mxRectangle width="335" height="58" as="alternateBounds" />
          </mxGeometry>
        </mxCell>
        <mxCell id="DnTANv_RaUk5CGLboCPG-35" value="[manager]/index.js" style="shape=partialRectangle;html=1;whiteSpace=wrap;connectable=0;strokeColor=inherit;overflow=hidden;fillColor=none;top=0;left=0;bottom=0;right=0;pointerEvents=1;fontSize=16;" parent="DnTANv_RaUk5CGLboCPG-33" vertex="1">
          <mxGeometry x="335" width="235" height="58" as="geometry">
            <mxRectangle width="235" height="58" as="alternateBounds" />
          </mxGeometry>
        </mxCell>
        <mxCell id="DnTANv_RaUk5CGLboCPG-36" value="Home Page. &lt;br&gt;Displays all locked tokens by this manager" style="shape=partialRectangle;html=1;whiteSpace=wrap;connectable=0;strokeColor=inherit;overflow=hidden;fillColor=none;top=0;left=0;bottom=0;right=0;pointerEvents=1;fontSize=16;" parent="DnTANv_RaUk5CGLboCPG-33" vertex="1">
          <mxGeometry x="570" width="330" height="58" as="geometry">
            <mxRectangle width="330" height="58" as="alternateBounds" />
          </mxGeometry>
        </mxCell>
        <mxCell id="4YmZv9fcDCtqBSnInkIV-1" value="" style="shape=tableRow;horizontal=0;startSize=0;swimlaneHead=0;swimlaneBody=0;strokeColor=inherit;top=0;left=0;bottom=0;right=0;collapsible=0;dropTarget=0;fillColor=none;points=[[0,0.5],[1,0.5]];portConstraint=eastwest;fontSize=16;" parent="DnTANv_RaUk5CGLboCPG-28" vertex="1">
          <mxGeometry y="164" width="900" height="56" as="geometry" />
        </mxCell>
        <mxCell id="4YmZv9fcDCtqBSnInkIV-2" value="/[manager]/tokens/new" style="shape=partialRectangle;html=1;whiteSpace=wrap;connectable=0;strokeColor=inherit;overflow=hidden;fillColor=none;top=0;left=0;bottom=0;right=0;pointerEvents=1;fontSize=18;" parent="4YmZv9fcDCtqBSnInkIV-1" vertex="1">
          <mxGeometry width="335" height="56" as="geometry">
            <mxRectangle width="335" height="56" as="alternateBounds" />
          </mxGeometry>
        </mxCell>
        <mxCell id="4YmZv9fcDCtqBSnInkIV-3" value="[manager]/tokens/new/index.js" style="shape=partialRectangle;html=1;whiteSpace=wrap;connectable=0;strokeColor=inherit;overflow=hidden;fillColor=none;top=0;left=0;bottom=0;right=0;pointerEvents=1;fontSize=16;" parent="4YmZv9fcDCtqBSnInkIV-1" vertex="1">
          <mxGeometry x="335" width="235" height="56" as="geometry">
            <mxRectangle width="235" height="56" as="alternateBounds" />
          </mxGeometry>
        </mxCell>
        <mxCell id="4YmZv9fcDCtqBSnInkIV-4" value="Lock new token page" style="shape=partialRectangle;html=1;whiteSpace=wrap;connectable=0;strokeColor=inherit;overflow=hidden;fillColor=none;top=0;left=0;bottom=0;right=0;pointerEvents=1;fontSize=16;" parent="4YmZv9fcDCtqBSnInkIV-1" vertex="1">
          <mxGeometry x="570" width="330" height="56" as="geometry">
            <mxRectangle width="330" height="56" as="alternateBounds" />
          </mxGeometry>
        </mxCell>
        <mxCell id="DnTANv_RaUk5CGLboCPG-37" value="" style="shape=tableRow;horizontal=0;startSize=0;swimlaneHead=0;swimlaneBody=0;strokeColor=inherit;top=0;left=0;bottom=0;right=0;collapsible=0;dropTarget=0;fillColor=none;points=[[0,0.5],[1,0.5]];portConstraint=eastwest;fontSize=16;" parent="DnTANv_RaUk5CGLboCPG-28" vertex="1">
          <mxGeometry y="220" width="900" height="56" as="geometry" />
        </mxCell>
        <mxCell id="DnTANv_RaUk5CGLboCPG-38" value="/[manager]/tokens/[token]" style="shape=partialRectangle;html=1;whiteSpace=wrap;connectable=0;strokeColor=inherit;overflow=hidden;fillColor=none;top=0;left=0;bottom=0;right=0;pointerEvents=1;fontSize=18;" parent="DnTANv_RaUk5CGLboCPG-37" vertex="1">
          <mxGeometry width="335" height="56" as="geometry">
            <mxRectangle width="335" height="56" as="alternateBounds" />
          </mxGeometry>
        </mxCell>
        <mxCell id="DnTANv_RaUk5CGLboCPG-39" value="[token]/index.js" style="shape=partialRectangle;html=1;whiteSpace=wrap;connectable=0;strokeColor=inherit;overflow=hidden;fillColor=none;top=0;left=0;bottom=0;right=0;pointerEvents=1;fontSize=16;" parent="DnTANv_RaUk5CGLboCPG-37" vertex="1">
          <mxGeometry x="335" width="235" height="56" as="geometry">
            <mxRectangle width="235" height="56" as="alternateBounds" />
          </mxGeometry>
        </mxCell>
        <mxCell id="DnTANv_RaUk5CGLboCPG-40" value="View token details page" style="shape=partialRectangle;html=1;whiteSpace=wrap;connectable=0;strokeColor=inherit;overflow=hidden;fillColor=none;top=0;left=0;bottom=0;right=0;pointerEvents=1;fontSize=16;" parent="DnTANv_RaUk5CGLboCPG-37" vertex="1">
          <mxGeometry x="570" width="330" height="56" as="geometry">
            <mxRectangle width="330" height="56" as="alternateBounds" />
          </mxGeometry>
        </mxCell>
      </root>
    </mxGraphModel>
  </diagram>
</mxfile>
